<svg width="67" height="60" fill="none" version="1.1" viewBox="0 0 67 60" xmlns="http://www.w3.org/2000/svg">
 <g fill="#FFA600">
  <path d="m55.833 5.0904h4.205c3.8385 0 6.9617 3.2362 6.9443 7.0845v40.688c0 3.8484-3.1058 6.9796-6.9618 6.9796h-53.059c-3.856 0-6.9617-3.1312-6.9617-6.9971v-40.671c0-3.8484 3.1232-7.0845 6.9617-7.0845h4.0305v-3.3411c0-0.9621 0.7851-1.7493 1.7448-1.7493 0.9596 0 1.7448 0.78717 1.7448 1.7493v3.3411h17.273v-3.3411c0-0.9621 0.7852-1.7493 1.7448-1.7493s1.7448 0.78717 1.7448 1.7493v3.3411h17.099v-3.3411c0-0.9621 0.7851-1.7493 1.7447-1.7493 0.9597 0 1.7448 0.78717 1.7448 1.7493v3.3411zm4.2224 51.254c1.9193-0.0175 3.4547-1.5743 3.4547-3.4985v-40.671c0-1.9242-1.5354-3.586-3.4721-3.586h-4.205v2.5365c0 0.9621-0.7851 1.7492-1.7448 1.7492-0.9596 0-1.7447-0.7871-1.7447-1.7492v-2.5365h-17.099v2.5365c0 0.9621-0.7852 1.7492-1.7448 1.7492s-1.7448-0.7871-1.7448-1.7492v-2.5365h-17.273v2.5365c0 0.9621-0.7852 1.7492-1.7448 1.7492-0.9597 0-1.7448-0.7871-1.7448-1.7492v-2.5365h-4.0305c-1.9193 0-3.4721 1.6443-3.4721 3.586v40.688c0 1.9242 1.5529 3.481 3.4721 3.481h53.094z" clip-rule="evenodd" fill-rule="evenodd" style="fill:#919191"/>
  <path d="m28.911 19.959h-3.0534c-0.9596 0-1.7448 0.7872-1.7448 1.7493s0.7852 1.7493 1.7448 1.7493h3.0534c0.9596 0 1.7448-0.7872 1.7448-1.7493s-0.7852-1.7493-1.7448-1.7493z" style="fill:#919191"/>
  <path d="m41.055 19.959h-3.0534c-0.9596 0-1.7448 0.7872-1.7448 1.7493s0.7852 1.7493 1.7448 1.7493h3.0534c0.9596 0 1.7448-0.7872 1.7448-1.7493s-0.7677-1.7493-1.7448-1.7493z" style="fill:#919191"/>
  <path d="m53.303 19.959h-3.0534c-0.9596 0-1.7448 0.7872-1.7448 1.7493s0.7852 1.7493 1.7448 1.7493h3.0534c0.9596 0 1.7448-0.7872 1.7448-1.7493s-0.7852-1.7493-1.7448-1.7493z" style="fill:#919191"/>
  <path d="m28.911 32.029h-3.0534c-0.9596 0-1.7448 0.7871-1.7448 1.7492s0.7852 1.7493 1.7448 1.7493h3.0534c0.9596 0 1.7448-0.7872 1.7448-1.7493s-0.7852-1.7492-1.7448-1.7492z" style="fill:#919191"/>
  <path d="m16.68 32.029h-3.0708c-0.9596 0-1.7448 0.7871-1.7448 1.7492s0.7852 1.7493 1.7448 1.7493h3.0534c0.9596 0 1.7448-0.7872 1.7448-1.7493s-0.7677-1.7492-1.7274-1.7492z" style="fill:#919191"/>
  <path d="m41.055 32.029h-3.0534c-0.9596 0-1.7448 0.7871-1.7448 1.7492s0.7852 1.7493 1.7448 1.7493h3.0534c0.9596 0 1.7448-0.7872 1.7448-1.7493s-0.7677-1.7492-1.7448-1.7492z" style="fill:#919191"/>
  <path d="m53.303 32.029h-3.0534c-0.9596 0-1.7448 0.7871-1.7448 1.7492s0.7852 1.7493 1.7448 1.7493h3.0534c0.9596 0 1.7448-0.7872 1.7448-1.7493s-0.7852-1.7492-1.7448-1.7492z" style="fill:#919191"/>
  <path d="m28.911 43.924h-3.0534c-0.9596 0-1.7448 0.7872-1.7448 1.7493s0.7852 1.7493 1.7448 1.7493h3.0534c0.9596 0 1.7448-0.7872 1.7448-1.7493s-0.7852-1.7493-1.7448-1.7493z" style="fill:#919191"/>
  <path d="m16.68 43.924h-3.0708c-0.9596 0-1.7448 0.7872-1.7448 1.7493s0.7852 1.7493 1.7448 1.7493h3.0534c0.9596 0 1.7448-0.7872 1.7448-1.7493s-0.7677-1.7493-1.7274-1.7493z" style="fill:#919191"/>
  <path d="m41.055 43.924h-3.0534c-0.9596 0-1.7448 0.7872-1.7448 1.7493s0.7852 1.7493 1.7448 1.7493h3.0534c0.9596 0 1.7448-0.7872 1.7448-1.7493s-0.7677-1.7493-1.7448-1.7493z" style="fill:#919191"/>
 </g>
</svg>
