<?xml version="1.0" encoding="UTF-8" standalone="no"?>
<svg
   xmlns:dc="http://purl.org/dc/elements/1.1/"
   xmlns:cc="http://creativecommons.org/ns#"
   xmlns:rdf="http://www.w3.org/1999/02/22-rdf-syntax-ns#"
   xmlns:svg="http://www.w3.org/2000/svg"
   xmlns="http://www.w3.org/2000/svg"
   xmlns:sodipodi="http://sodipodi.sourceforge.net/DTD/sodipodi-0.dtd"
   xmlns:inkscape="http://www.inkscape.org/namespaces/inkscape"
   inkscape:version="1.0 (1.0+r73+1)"
   sodipodi:docname="Group 15.svg"
   id="svg6"
   version="1.1"
   fill="none"
   viewBox="0 0 29 29"
   height="29"
   width="29">
  <metadata
     id="metadata12">
    <rdf:RDF>
      <cc:Work
         rdf:about="">
        <dc:format>image/svg+xml</dc:format>
        <dc:type
           rdf:resource="http://purl.org/dc/dcmitype/StillImage" />
      </cc:Work>
    </rdf:RDF>
  </metadata>
  <defs
     id="defs10" />
  <sodipodi:namedview
     inkscape:current-layer="svg6"
     inkscape:window-maximized="1"
     inkscape:window-y="30"
     inkscape:window-x="0"
     inkscape:cy="14.5"
     inkscape:cx="14.5"
     inkscape:zoom="16.206897"
     showgrid="false"
     id="namedview8"
     inkscape:window-height="837"
     inkscape:window-width="1440"
     inkscape:pageshadow="2"
     inkscape:pageopacity="0"
     guidetolerance="10"
     gridtolerance="10"
     objecttolerance="10"
     borderopacity="1"
     bordercolor="#666666"
     pagecolor="#ffffff" />
  <path
     d="M 14.457031 0 A 14.5 14.5 0 0 0 0 14.5 A 14.5 14.5 0 0 0 14.5 29 A 14.5 14.5 0 0 0 29 14.5 A 14.5 14.5 0 0 0 14.5 0 A 14.5 14.5 0 0 0 14.457031 0 z M 15.367188 6 L 18 6 L 18 8.9804688 L 16.064453 8.9804688 C 15.681153 8.9804688 15.294922 9.3737256 15.294922 9.6660156 L 15.294922 11.623047 L 17.996094 11.623047 C 17.887394 13.123747 17.664062 14.496094 17.664062 14.496094 L 15.28125 14.496094 L 15.28125 23 L 11.728516 23 L 11.728516 14.494141 L 10 14.494141 L 10 11.632812 L 11.728516 11.632812 L 11.728516 9.2929688 C 11.728516 8.8651087 11.640688 6 15.367188 6 z "
     style="fill:#ffffff"
     id="circle2" />
</svg>
