<svg width="27.91px" height="32px" enable-background="new 0 0 27.91 32" version="1.1" viewBox="0 0 27.91 32" xmlns="http://www.w3.org/2000/svg">
 <path d="m23.383 16.296c-0.611-0.137-1.223-0.151-1.822-0.067-5.243-7.823-12.01-11.129-15.565-12.403l0.353-0.54-4.66-3.286-1.689 2.58 5.067 2.666 0.364-0.558c2.699 2.812 4.305 7.083 5.195 10.777-3.262 0.049-6.329 2.812-7.21 6.758-1.002 4.489 1.208 8.805 4.938 9.637 3.73 0.834 7.567-2.131 8.568-6.617 0.989-4.432-1.152-8.684-4.791-9.596-0.394-3.8-3.052-9.066-3.052-9.066 3.899 1.6 8.802 6.579 11.026 10.062-0.947 0.416-1.819 1.088-2.535 1.961 1.086 1.807 1.498 4.191 0.953 6.638-0.271 1.213-0.754 2.311-1.381 3.256 0.773 1.006 1.823 1.731 3.067 2.009 3.261 0.729 6.612-1.863 7.489-5.785 0.877-3.927-1.055-7.699-4.315-8.426zm-9.504 3.886c0 1.375-0.831 2.49-1.855 2.49s-1.856-1.115-1.856-2.49c0-1.373 0.832-2.488 1.856-2.488 1.025-3e-3 1.855 1.115 1.855 2.488zm9.971 2.798c-1.024 0-1.854-1.114-1.854-2.489s0.83-2.489 1.854-2.489 1.855 1.114 1.855 2.489-0.831 2.489-1.855 2.489z" style="fill:#ffa600"/>
</svg>
