<svg width="352" height="352" viewBox="0 0 352 352" fill="none" xmlns="http://www.w3.org/2000/svg">
<path d="M76 44C76 41.238 73.6745 39 70.8061 39H37.1939C34.3255 39 32 41.238 32 44C32 46.762 34.3255 49 37.1939 49H70.8054C73.6745 49 76 46.7613 76 44Z" fill="#FFA600"/>
<path d="M44.0996 59C41.2833 59 39 61.238 39 64C39 66.762 41.2833 69 44.0996 69H63.9004C66.7167 69 69 66.762 69 64C69 61.238 66.7167 59 63.9004 59H44.0996Z" fill="#FFA600"/>
<path fill-rule="evenodd" clip-rule="evenodd" d="M315.783 328.34H346.844C349.691 328.34 352 330.648 352 333.497C352 336.345 349.691 338.653 346.844 338.653H315.783C313.544 346.354 306.429 352 298.015 352C289.602 352 282.487 346.354 280.248 338.653H193.767C191.529 346.354 184.414 352 176 352C167.586 352 160.471 346.354 158.233 338.653H71.7516C69.5124 346.354 62.3975 352 53.9846 352C45.5716 352 38.456 346.354 36.2175 338.653H5.15625C2.30862 338.653 0 336.345 0 333.497C0 330.648 2.30862 328.34 5.15625 328.34H36.2175C37.9802 322.277 42.7653 317.492 48.8283 315.73V107.717C21.4713 105.112 0 82.0126 0 53.9846C0 24.2179 24.2172 0 53.9846 0C83.7519 0 107.969 24.2179 107.969 53.9846C107.969 63.9279 105.242 73.6478 100.082 82.093C98.5971 84.5219 95.425 85.2885 92.994 83.8049C90.5637 82.3199 89.7978 79.1471 91.2821 76.7161C95.4525 69.8899 97.6566 62.0297 97.6566 53.9846C97.6566 29.9035 78.0656 10.3125 53.9846 10.3125C29.9035 10.3125 10.3125 29.9035 10.3125 53.9846C10.3125 78.0649 29.9035 97.6559 53.9846 97.6559C63.5601 97.6559 72.6481 94.6165 80.267 88.8662C82.5406 87.1516 85.7732 87.6033 87.4885 89.8755C89.2038 92.1491 88.7521 95.3824 86.4792 97.0977C78.4369 103.168 69.0711 106.786 59.1408 107.718V315.73C65.2039 317.492 69.9889 322.277 71.7516 328.34H158.233C159.996 322.277 164.781 317.492 170.844 315.73V207.821C143.487 205.216 122.015 182.117 122.015 154.089C122.015 128.035 140.587 105.705 166.174 100.996C168.974 100.477 171.663 102.333 172.178 105.135C172.693 107.935 170.84 110.623 168.039 111.138C147.346 114.947 132.327 133.01 132.327 154.089C132.327 178.169 151.918 197.76 175.999 197.76C200.08 197.76 219.671 178.169 219.671 154.089C219.671 132.507 204.232 114.372 182.961 110.967C180.149 110.517 178.234 107.872 178.685 105.06C179.135 102.248 181.778 100.334 184.591 100.784C197.128 102.79 208.615 109.222 216.937 118.896C225.35 128.675 229.984 141.173 229.984 154.088C229.984 182.115 208.513 205.215 181.156 207.82V315.729C187.219 317.492 192.004 322.277 193.766 328.34H280.248C282.01 322.277 286.795 317.492 292.858 315.729V107.717C265.501 105.112 244.03 82.0126 244.03 53.9846C244.031 24.2179 268.248 0 298.015 0C309.788 0 320.976 3.7235 330.371 10.7669C332.65 12.4754 333.112 15.7073 331.403 17.9857C329.695 20.2641 326.463 20.7274 324.184 19.0183C316.589 13.3231 307.539 10.3125 298.015 10.3125C273.934 10.3125 254.343 29.9035 254.343 53.9846C254.343 78.0649 273.935 97.6559 298.015 97.6559C322.096 97.6559 341.688 78.0656 341.688 53.9846C341.688 45.5551 339.283 37.3752 334.734 30.3304C333.189 27.9386 333.877 24.7466 336.269 23.2017C338.66 21.6562 341.853 22.3444 343.397 24.7362C349.025 33.4524 352 43.5662 352 53.9846C352 82.0119 330.529 105.111 303.172 107.717V315.73C309.235 317.492 314.02 322.277 315.783 328.34ZM45.7937 333.497C45.7937 338.013 49.4684 341.688 53.9846 341.688C58.5007 341.688 62.1754 338.013 62.1754 333.497C62.1754 328.98 58.5007 325.306 53.9846 325.306C49.4684 325.306 45.7937 328.98 45.7937 333.497ZM176 341.688C171.484 341.688 167.811 338.015 167.809 333.5V333.497V333.493C167.811 328.978 171.484 325.306 176 325.306C180.516 325.306 184.191 328.98 184.191 333.497C184.191 338.013 180.516 341.688 176 341.688ZM289.825 333.497C289.825 338.013 293.499 341.688 298.015 341.688C302.532 341.688 306.206 338.013 306.206 333.497C306.206 328.98 302.532 325.306 298.015 325.306C293.499 325.306 289.825 328.98 289.825 333.497Z" fill="#FFA600"/>
<path d="M298.166 49C295.313 49 293 51.238 293 54C293 56.762 295.313 59 298.166 59H298.834C301.687 59 304 56.762 304 54C304 51.238 301.687 49 298.834 49H298.166Z" fill="#FFA600"/>
<path d="M281.166 49C278.313 49 276 51.238 276 54C276 56.762 278.313 59 281.166 59H281.834C284.687 59 287 56.762 287 54C287 51.238 284.687 49 281.834 49H281.166Z" fill="#FFA600"/>
<path d="M166.1 159C163.283 159 161 161.238 161 164C161 166.762 163.283 169 166.1 169H185.9C188.717 169 191 166.762 191 164C191 161.238 188.717 159 185.9 159H166.1Z" fill="#FFA600"/>
<path d="M314.166 49C311.313 49 309 51.238 309 54C309 56.762 311.313 59 314.166 59H314.834C317.687 59 320 56.762 320 54C320 51.238 317.687 49 314.834 49H314.166Z" fill="#FFA600"/>
<path d="M198 144C198 141.238 195.674 139 192.806 139H159.194C156.326 139 154 141.238 154 144C154 146.762 156.326 149 159.194 149H192.806C195.674 149 198 146.762 198 144Z" fill="#FFA600"/>
</svg>
